<svg width="100%" height="100%" id="svg" viewBox="0 0 1440 400" className="transition duration-300 ease-in-out delay-150"><defs><linearGradient id="gradient" x1="50%" y1="0%" x2="50%" y2="100%"><stop offset="5%" stop-color="#eb7378"></stop><stop offset="95%" stop-color="#eb7279"></stop></linearGradient></defs><path d="M 0,400 C 0,400 0,200 0,200 C 39.0745427859774,227.5381247537858 78.1490855719548,255.07624950757162 115,272 C 151.8509144280452,288.9237504924284 186.4782004981583,295.23312672349925 222,272 C 257.5217995018417,248.76687327650072 293.938112435412,195.99124359843137 331,191 C 368.061887564588,186.00875640156863 405.76934976019373,228.80189888277528 447,227 C 488.23065023980627,225.19810111722472 532.9844885238133,178.80116087046756 567,161 C 601.0155114761867,143.19883912953244 624.2926961445532,153.99345763535462 657,151 C 689.7073038554468,148.00654236464538 731.8447268979733,131.22500858811404 774,152 C 816.1552731020267,172.77499141188596 858.3283962635538,231.1065080121892 893,241 C 927.6716037364462,250.8934919878108 954.8416880478114,212.34895936312915 993,207 C 1031.1583119521886,201.65104063687085 1080.3048515451997,229.49765453529415 1118,249 C 1155.6951484548003,268.50234546470585 1181.93890577139,279.6604224956943 1219,264 C 1256.06109422861,248.33957750430565 1303.9395253692412,205.86065548192843 1343,188 C 1382.0604746307588,170.13934451807157 1412.3029927516452,176.8969555765919 1427,183 C 1441.6970072483548,189.1030444234081 1440.8485036241773,194.55152221170405 1440,200 C 1440,200 1440,400 1440,400 Z" stroke="none" stroke-width="0" fill="url(#gradient)" fill-opacity="1" className="transition-all duration-300 ease-in-out delay-150 path-0" transform="rotate(-180 720 200)"></path></svg>