<svg id="visual" viewBox="0 0 900 600" width="900" height="600" xmlns="http://www.w3.org/2000/svg" xmlns:xlink="http://www.w3.org/1999/xlink" version="1.1"><path d="M0 80L8.3 86.7C16.7 93.3 33.3 106.7 50 103.5C66.7 100.3 83.3 80.7 100 77C116.7 73.3 133.3 85.7 150 95.3C166.7 105 183.3 112 200 112.8C216.7 113.7 233.3 108.3 250 99.7C266.7 91 283.3 79 300 74.7C316.7 70.3 333.3 73.7 350 76.3C366.7 79 383.3 81 400 88.7C416.7 96.3 433.3 109.7 450 106C466.7 102.3 483.3 81.7 500 72C516.7 62.3 533.3 63.7 550 64C566.7 64.3 583.3 63.7 600 72.2C616.7 80.7 633.3 98.3 650 103C666.7 107.7 683.3 99.3 700 91.5C716.7 83.7 733.3 76.3 750 80.2C766.7 84 783.3 99 800 102.3C816.7 105.7 833.3 97.3 850 97.5C866.7 97.7 883.3 106.3 891.7 110.7L900 115L900 0L891.7 0C883.3 0 866.7 0 850 0C833.3 0 816.7 0 800 0C783.3 0 766.7 0 750 0C733.3 0 716.7 0 700 0C683.3 0 666.7 0 650 0C633.3 0 616.7 0 600 0C583.3 0 566.7 0 550 0C533.3 0 516.7 0 500 0C483.3 0 466.7 0 450 0C433.3 0 416.7 0 400 0C383.3 0 366.7 0 350 0C333.3 0 316.7 0 300 0C283.3 0 266.7 0 250 0C233.3 0 216.7 0 200 0C183.3 0 166.7 0 150 0C133.3 0 116.7 0 100 0C83.3 0 66.7 0 50 0C33.3 0 16.7 0 8.3 0L0 0Z" fill="#FF6F61" stroke-linecap="round" stroke-linejoin="miter"></path></svg>