<svg id="visual" viewBox="0 0 2400 400" width="2400" height="400" xmlns="http://www.w3.org/2000/svg" xmlns:xlink="http://www.w3.org/1999/xlink" version="1.1"><path d="M0 72L16 75.5C32 79 64 86 96 95.8C128 105.7 160 118.3 192 116.3C224 114.3 256 97.7 288 77.7C320 57.7 352 34.3 384 35.7C416 37 448 63 480 64.3C512 65.7 544 42.3 576 51.7C608 61 640 103 672 117C704 131 736 117 768 95.8C800 74.7 832 46.3 864 45.8C896 45.3 928 72.7 960 79.3C992 86 1024 72 1056 65.2C1088 58.3 1120 58.7 1152 62.3C1184 66 1216 73 1248 66.2C1280 59.3 1312 38.7 1344 49C1376 59.3 1408 100.7 1440 99.2C1472 97.7 1504 53.3 1536 49.3C1568 45.3 1600 81.7 1632 100.3C1664 119 1696 120 1728 117.5C1760 115 1792 109 1824 95.5C1856 82 1888 61 1920 61C1952 61 1984 82 2016 94.2C2048 106.3 2080 109.7 2112 94.2C2144 78.7 2176 44.3 2208 32.8C2240 21.3 2272 32.7 2304 48.3C2336 64 2368 84 2384 94L2400 104L2400 0L2384 0C2368 0 2336 0 2304 0C2272 0 2240 0 2208 0C2176 0 2144 0 2112 0C2080 0 2048 0 2016 0C1984 0 1952 0 1920 0C1888 0 1856 0 1824 0C1792 0 1760 0 1728 0C1696 0 1664 0 1632 0C1600 0 1568 0 1536 0C1504 0 1472 0 1440 0C1408 0 1376 0 1344 0C1312 0 1280 0 1248 0C1216 0 1184 0 1152 0C1120 0 1088 0 1056 0C1024 0 992 0 960 0C928 0 896 0 864 0C832 0 800 0 768 0C736 0 704 0 672 0C640 0 608 0 576 0C544 0 512 0 480 0C448 0 416 0 384 0C352 0 320 0 288 0C256 0 224 0 192 0C160 0 128 0 96 0C64 0 32 0 16 0L0 0Z" fill="#FF6F61" stroke-linecap="round" stroke-linejoin="miter"></path></svg>