<svg id="visual" viewBox="0 0 100 450" width="100" height="450" xmlns="http://www.w3.org/2000/svg" xmlns:xlink="http://www.w3.org/1999/xlink" version="1.1"><path d="M21 0L25.3 4.3C29.7 8.7 38.3 17.3 46.2 26.2C54 35 61 44 55.8 52.8C50.7 61.7 33.3 70.3 22.3 79.2C11.3 88 6.7 97 7.8 105.8C9 114.7 16 123.3 29.3 132.2C42.7 141 62.3 150 66.8 158.8C71.3 167.7 60.7 176.3 47.8 185.2C35 194 20 203 23.3 211.8C26.7 220.7 48.3 229.3 54.3 238.2C60.3 247 50.7 256 41.8 264.8C33 273.7 25 282.3 18.8 291.2C12.7 300 8.3 309 6.3 317.8C4.3 326.7 4.7 335.3 12.7 344.2C20.7 353 36.3 362 37.5 370.8C38.7 379.7 25.3 388.3 18.7 397.2C12 406 12 415 14.8 423.8C17.7 432.7 23.3 441.3 26.2 445.7L29 450L0 450L0 445.7C0 441.3 0 432.7 0 423.8C0 415 0 406 0 397.2C0 388.3 0 379.7 0 370.8C0 362 0 353 0 344.2C0 335.3 0 326.7 0 317.8C0 309 0 300 0 291.2C0 282.3 0 273.7 0 264.8C0 256 0 247 0 238.2C0 229.3 0 220.7 0 211.8C0 203 0 194 0 185.2C0 176.3 0 167.7 0 158.8C0 150 0 141 0 132.2C0 123.3 0 114.7 0 105.8C0 97 0 88 0 79.2C0 70.3 0 61.7 0 52.8C0 44 0 35 0 26.2C0 17.3 0 8.7 0 4.3L0 0Z" fill="#EA6D7C" stroke-linecap="round" stroke-linejoin="miter"></path></svg>