<svg id="visual" viewBox="0 0 900 600" width="900" height="600" xmlns="http://www.w3.org/2000/svg" xmlns:xlink="http://www.w3.org/1999/xlink" version="1.1"><path d="M0 518L8.3 511.3C16.7 504.7 33.3 491.3 50 494.5C66.7 497.7 83.3 517.3 100 521C116.7 524.7 133.3 512.3 150 502.7C166.7 493 183.3 486 200 485.2C216.7 484.3 233.3 489.7 250 498.3C266.7 507 283.3 519 300 523.3C316.7 527.7 333.3 524.3 350 521.7C366.7 519 383.3 517 400 509.3C416.7 501.7 433.3 488.3 450 492C466.7 495.7 483.3 516.3 500 526C516.7 535.7 533.3 534.3 550 534C566.7 533.7 583.3 534.3 600 525.8C616.7 517.3 633.3 499.7 650 495C666.7 490.3 683.3 498.7 700 506.5C716.7 514.3 733.3 521.7 750 517.8C766.7 514 783.3 499 800 495.7C816.7 492.3 833.3 500.7 850 500.5C866.7 500.3 883.3 491.7 891.7 487.3L900 483L900 601L891.7 601C883.3 601 866.7 601 850 601C833.3 601 816.7 601 800 601C783.3 601 766.7 601 750 601C733.3 601 716.7 601 700 601C683.3 601 666.7 601 650 601C633.3 601 616.7 601 600 601C583.3 601 566.7 601 550 601C533.3 601 516.7 601 500 601C483.3 601 466.7 601 450 601C433.3 601 416.7 601 400 601C383.3 601 366.7 601 350 601C333.3 601 316.7 601 300 601C283.3 601 266.7 601 250 601C233.3 601 216.7 601 200 601C183.3 601 166.7 601 150 601C133.3 601 116.7 601 100 601C83.3 601 66.7 601 50 601C33.3 601 16.7 601 8.3 601L0 601Z" fill="#FF6F61" stroke-linecap="round" stroke-linejoin="miter"></path></svg>