<svg id="visual" viewBox="0 0 2400 50" width="2400" height="50" xmlns="http://www.w3.org/2000/svg" xmlns:xlink="http://www.w3.org/1999/xlink" version="1.1"><path d="M0 33L12.8 32.7C25.7 32.3 51.3 31.7 77.2 31.7C103 31.7 129 32.3 154.8 34.3C180.7 36.3 206.3 39.7 232.2 39.8C258 40 284 37 309.8 32.7C335.7 28.3 361.3 22.7 387.2 22.8C413 23 439 29 464.8 28.2C490.7 27.3 516.3 19.7 542 16C567.7 12.3 593.3 12.7 619.2 16.7C645 20.7 671 28.3 696.8 28.2C722.7 28 748.3 20 774.2 17.3C800 14.7 826 17.3 851.8 19.2C877.7 21 903.3 22 929 26.2C954.7 30.3 980.3 37.7 1006.2 34.5C1032 31.3 1058 17.7 1083.8 12.2C1109.7 6.7 1135.3 9.3 1161.2 14.3C1187 19.3 1213 26.7 1238.8 28.2C1264.7 29.7 1290.3 25.3 1316.2 20C1342 14.7 1368 8.3 1393.8 8.5C1419.7 8.7 1445.3 15.3 1471 17.7C1496.7 20 1522.3 18 1548.2 19.8C1574 21.7 1600 27.3 1625.8 25.7C1651.7 24 1677.3 15 1703.2 13C1729 11 1755 16 1780.8 17.7C1806.7 19.3 1832.3 17.7 1858 14.8C1883.7 12 1909.3 8 1935.2 5.8C1961 3.7 1987 3.3 2012.8 6.5C2038.7 9.7 2064.3 16.3 2090.2 19.5C2116 22.7 2142 22.3 2167.8 25.7C2193.7 29 2219.3 36 2245.2 39.2C2271 42.3 2297 41.7 2322.8 41.3C2348.7 41 2374.3 41 2387.2 41L2400 41L2400 51L2387.2 51C2374.3 51 2348.7 51 2322.8 51C2297 51 2271 51 2245.2 51C2219.3 51 2193.7 51 2167.8 51C2142 51 2116 51 2090.2 51C2064.3 51 2038.7 51 2012.8 51C1987 51 1961 51 1935.2 51C1909.3 51 1883.7 51 1858 51C1832.3 51 1806.7 51 1780.8 51C1755 51 1729 51 1703.2 51C1677.3 51 1651.7 51 1625.8 51C1600 51 1574 51 1548.2 51C1522.3 51 1496.7 51 1471 51C1445.3 51 1419.7 51 1393.8 51C1368 51 1342 51 1316.2 51C1290.3 51 1264.7 51 1238.8 51C1213 51 1187 51 1161.2 51C1135.3 51 1109.7 51 1083.8 51C1058 51 1032 51 1006.2 51C980.3 51 954.7 51 929 51C903.3 51 877.7 51 851.8 51C826 51 800 51 774.2 51C748.3 51 722.7 51 696.8 51C671 51 645 51 619.2 51C593.3 51 567.7 51 542 51C516.3 51 490.7 51 464.8 51C439 51 413 51 387.2 51C361.3 51 335.7 51 309.8 51C284 51 258 51 232.2 51C206.3 51 180.7 51 154.8 51C129 51 103 51 77.2 51C51.3 51 25.7 51 12.8 51L0 51Z" fill="#FF6F61" stroke-linecap="round" stroke-linejoin="miter"></path></svg>