<svg id="visual" viewBox="0 0 100 450" width="100" height="450" xmlns="http://www.w3.org/2000/svg" xmlns:xlink="http://www.w3.org/1999/xlink" version="1.1"><path d="M7 0L14.7 12.5C22.3 25 37.7 50 48 75C58.3 100 63.7 125 66.5 150C69.3 175 69.7 200 62.7 225C55.7 250 41.3 275 42.2 300C43 325 59 350 60 375C61 400 47 425 40 437.5L33 450L0 450L0 437.5C0 425 0 400 0 375C0 350 0 325 0 300C0 275 0 250 0 225C0 200 0 175 0 150C0 125 0 100 0 75C0 50 0 25 0 12.5L0 0Z" fill="#EA6D7C" stroke-linecap="round" stroke-linejoin="miter"></path></svg>