<svg id="visual" viewBox="0 0 100 450" width="100" height="450" xmlns="http://www.w3.org/2000/svg" xmlns:xlink="http://www.w3.org/1999/xlink" version="1.1"><path d="M95 450L87.3 437.5C79.7 425 64.3 400 54 375C43.7 350 38.3 325 35.5 300C32.7 275 32.3 250 39.3 225C46.3 200 60.7 175 59.8 150C59 125 43 100 42 75C41 50 55 25 62 12.5L69 0L100 0L100 12.5C100 25 100 50 100 75C100 100 100 125 100 150C100 175 100 200 100 225C100 250 100 275 100 300C100 325 100 350 100 375C100 400 100 425 100 437.5L100 450Z" fill="#EA6D7C" stroke-linecap="round" stroke-linejoin="miter"></path></svg>