<svg id="visual" viewBox="0 0 2400 60" width="2400" height="60" xmlns="http://www.w3.org/2000/svg" xmlns:xlink="http://www.w3.org/1999/xlink" version="1.1"><path d="M0 40L12.8 43.2C25.7 46.3 51.3 52.7 77.2 48.3C103 44 129 29 154.8 25.8C180.7 22.7 206.3 31.3 232.2 38.3C258 45.3 284 50.7 309.8 46.8C335.7 43 361.3 30 387.2 24.7C413 19.3 439 21.7 464.8 28C490.7 34.3 516.3 44.7 542 41.2C567.7 37.7 593.3 20.3 619.2 16C645 11.7 671 20.3 696.8 26C722.7 31.7 748.3 34.3 774.2 30.5C800 26.7 826 16.3 851.8 15.3C877.7 14.3 903.3 22.7 929 23.3C954.7 24 980.3 17 1006.2 19C1032 21 1058 32 1083.8 40C1109.7 48 1135.3 53 1161.2 48.7C1187 44.3 1213 30.7 1238.8 24.7C1264.7 18.7 1290.3 20.3 1316.2 25.5C1342 30.7 1368 39.3 1393.8 35.7C1419.7 32 1445.3 16 1471 11.5C1496.7 7 1522.3 14 1548.2 21.8C1574 29.7 1600 38.3 1625.8 39.5C1651.7 40.7 1677.3 34.3 1703.2 27.5C1729 20.7 1755 13.3 1780.8 12.8C1806.7 12.3 1832.3 18.7 1858 26.5C1883.7 34.3 1909.3 43.7 1935.2 42.5C1961 41.3 1987 29.7 2012.8 21C2038.7 12.3 2064.3 6.7 2090.2 4.7C2116 2.7 2142 4.3 2167.8 5C2193.7 5.7 2219.3 5.3 2245.2 14C2271 22.7 2297 40.3 2322.8 43.8C2348.7 47.3 2374.3 36.7 2387.2 31.3L2400 26L2400 0L2387.2 0C2374.3 0 2348.7 0 2322.8 0C2297 0 2271 0 2245.2 0C2219.3 0 2193.7 0 2167.8 0C2142 0 2116 0 2090.2 0C2064.3 0 2038.7 0 2012.8 0C1987 0 1961 0 1935.2 0C1909.3 0 1883.7 0 1858 0C1832.3 0 1806.7 0 1780.8 0C1755 0 1729 0 1703.2 0C1677.3 0 1651.7 0 1625.8 0C1600 0 1574 0 1548.2 0C1522.3 0 1496.7 0 1471 0C1445.3 0 1419.7 0 1393.8 0C1368 0 1342 0 1316.2 0C1290.3 0 1264.7 0 1238.8 0C1213 0 1187 0 1161.2 0C1135.3 0 1109.7 0 1083.8 0C1058 0 1032 0 1006.2 0C980.3 0 954.7 0 929 0C903.3 0 877.7 0 851.8 0C826 0 800 0 774.2 0C748.3 0 722.7 0 696.8 0C671 0 645 0 619.2 0C593.3 0 567.7 0 542 0C516.3 0 490.7 0 464.8 0C439 0 413 0 387.2 0C361.3 0 335.7 0 309.8 0C284 0 258 0 232.2 0C206.3 0 180.7 0 154.8 0C129 0 103 0 77.2 0C51.3 0 25.7 0 12.8 0L0 0Z" fill="#FF6F61" stroke-linecap="round" stroke-linejoin="miter"></path></svg>